inDegrees=no
num_controls=7
num_derivatives=13
num_iterations=124
num_multipliers=7
num_parameters=0
num_slacks=7
num_states=26
objective=6.055663
objective_accelerations=0.513962
objective_balance=0.026243
objective_effort=0.530187
objective_height=4.869421
objective_ligament=0.115850
solver_duration=1038.511040
status=Solve_Succeeded
success=true
DataType=double
version=3
OpenSimVersion=4.4-2022-07-23-0e9fedc
endheader
time	/jointset/ground_pelvis/pelvis_tilt/value	/jointset/ground_pelvis/pelvis_tx/value	/jointset/ground_pelvis/pelvis_ty/value	/jointset/hip_r/hip_flexion_r/value	/jointset/hip_r/hip_adduction_r/value	/jointset/hip_r/hip_rotation_r/value	/jointset/back/lumbar_extension/value	/jointset/patellofemoral_r/patellar_flexion_r/value	/jointset/knee_r/knee_flexion_r/value	/jointset/knee_r/knee_adduction_r/value	/jointset/knee_r/knee_rotation_r/value	/jointset/ankle_r/ankle_angle_r/value	/jointset/subtalar_r/subtalar_angle_r/value	/jointset/ground_pelvis/pelvis_tilt/speed	/jointset/ground_pelvis/pelvis_tx/speed	/jointset/ground_pelvis/pelvis_ty/speed	/jointset/hip_r/hip_flexion_r/speed	/jointset/hip_r/hip_adduction_r/speed	/jointset/hip_r/hip_rotation_r/speed	/jointset/back/lumbar_extension/speed	/jointset/patellofemoral_r/patellar_flexion_r/speed	/jointset/knee_r/knee_flexion_r/speed	/jointset/knee_r/knee_adduction_r/speed	/jointset/knee_r/knee_rotation_r/speed	/jointset/ankle_r/ankle_angle_r/speed	/jointset/subtalar_r/subtalar_angle_r/speed	/forceset/tau_hip_flexion_r	/forceset/tau_hip_adduction_r	/forceset/tau_hip_rotation_r	/forceset/tau_knee_flexion_r	/forceset/tau_ankle_angle_r	/forceset/tau_subtalar_angle_r	/forceset/tau_lumbar_extension	lambda_cid13_p0	lambda_cid14_p0	lambda_cid14_p1	lambda_cid14_p2	lambda_cid14_p3	lambda_cid14_p4	lambda_cid14_p5	/jointset/ground_pelvis/pelvis_tilt/accel	/jointset/ground_pelvis/pelvis_tx/accel	/jointset/ground_pelvis/pelvis_ty/accel	/jointset/hip_r/hip_flexion_r/accel	/jointset/hip_r/hip_adduction_r/accel	/jointset/hip_r/hip_rotation_r/accel	/jointset/back/lumbar_extension/accel	/jointset/patellofemoral_r/patellar_flexion_r/accel	/jointset/knee_r/knee_flexion_r/accel	/jointset/knee_r/knee_adduction_r/accel	/jointset/knee_r/knee_rotation_r/accel	/jointset/ankle_r/ankle_angle_r/accel	/jointset/subtalar_r/subtalar_angle_r/accel	gamma_cid13_p0	gamma_cid14_p0	gamma_cid14_p1	gamma_cid14_p2	gamma_cid14_p3	gamma_cid14_p4	gamma_cid14_p5
1	-0.6201903073355118	-0.1289762441144352	0.6810600041950924	1.693097093372384	-0.2227654933715147	-0.07640397168213946	-0.785382407454999	1.037204966195828	1.037204966195823	-0.02970463535423107	0.1745293889590236	0.04454783204832476	0.05504326920897714	0.07892129023167944	0.002675166954618064	0.01411552762253993	-0.09488238065137365	0.0005295549271891954	-0.003571059795496051	-0.0001219955640419362	-0.0127428085351488	-0.01274280853515094	-0.0002797778366837285	9.252254389494291e-06	0.003247710538501551	0.001605022903062733	-0.5277421160370289	-0.002073728063500765	0.01516557836538975	-0.2194385982537672	0.1144536938471395	0.0007139591482860786	0.4451279025873778	-4.574863833163286	-13.70461837721722	-1.128871127298412	-0.4953707402023604	-4.749878064488196	-759.024055898562	61.24946900889015	3.050259470655631	0.5554245629254044	1.373707165706833	-6.081264470906564	0.06451495899092001	-0.6656002609627574	-0.02661568923728096	-2.866502123339443	-2.866502123339342	0.1518066768794382	0.007412299532246428	0.1107274199723241	0.118723249653428	8.50198457286415e-11	2.847150659489165e-09	1.531353902124202e-09	5.427839538168012e-10	-5.720335531275861e-09	-2.935656647661683e-09	-1.601459522120512e-10
1.01	-0.6192496533978972	-0.1289218218666779	0.6812697041872191	1.691845361914407	-0.2227567792105613	-0.07647281807295071	-0.7853838169286292	1.036934050019094	1.036934050018988	-0.02970000786226449	0.1745295100228304	0.04458563859609396	0.05506542562585347	0.1092046566553543	0.008209549104901343	0.02782435141325607	-0.1554648005111449	0.001213012745446659	-0.01019801251804693	-0.0001601258969867974	-0.04144924192600154	-0.04144924192601608	0.001209277407634976	1.506504356215289e-05	0.004309776557334681	0.002824891443376917	-0.5272111306314096	-0.002110977361915343	0.01518303007253743	-0.2196539234722899	0.1145679004772397	0.0007069602781631184	0.4448877420449626	-4.585439114479879	-13.6609381189145	-1.125064276030242	-0.4950619768426413	-4.701116008159146	-758.8588223892157	61.29070995831117	3.016648753637628	0.5524834901327575	1.369451059079801	-6.046864639010609	0.07022192931557016	-0.6612127167142512	0.007554284378901802	-2.874036172193736	-2.874036172195978	0.1480559977560821	-0.002818748266678965	0.1033734185879913	0.1234138708898928	-2.074527589852473e-10	3.609914146345579e-09	3.974932571171525e-09	2.286839904209431e-10	-7.609490931151817e-09	-5.067340312980505e-09	-1.397195434142636e-09
1.02	-0.6180063110909214	-0.1288120481076097	0.6816164886319174	1.689987779478757	-0.2227412383241613	-0.07660792797879831	-0.7853856145075813	1.036375805063403	1.036375805063196	-0.02968036960771829	0.1745296923110329	0.0446339512492062	0.05509973977106962	0.139458964095549	0.01374546921679215	0.04153241813683178	-0.2160525761908969	0.001894900006507647	-0.016823762793048	-0.000199616641866043	-0.07020856432627648	-0.07020856432630396	0.002722374633848142	2.149715767753285e-05	0.005348931606125467	0.004036568570462823	-0.5266801452258273	-0.002148226660247212	0.01520048177905086	-0.2198692486908507	0.1146821071073845	0.0006999614081595887	0.4446475815025094	-4.607209985097636	-13.62316973955887	-1.12127214373389	-0.4959164548809818	-4.677777207508775	-758.8020304199356	61.34009715373561	3.044447673960113	0.5557321552463936	1.373555752278576	-6.08233563490246	0.06420084755172006	-0.6653597714524714	-0.02688777162383812	-2.877079925223943	-2.87707992522395	0.1566150732584677	0.007536164520500585	0.1061452259629905	0.1170849670076299	-4.510105486281843e-10	4.369717086286985e-09	6.386321568036907e-09	-7.79585772610534e-13	-9.397999136110967e-09	-7.359059430458935e-09	-2.456988428298996e-09
1.03	-0.6164605842002802	-0.1286468947063669	0.6821003380971219	1.687524282577805	-0.2227188947700576	-0.07680925799448828	-0.785387760336164	1.035529653489578	1.035529653489343	-0.02964541430905132	0.1745299383663661	0.04469250494535453	0.05514610929739745	0.1696799950523108	0.01928670360348414	0.05523621292402413	-0.276648669393159	0.00257312434529616	-0.02343947244839009	-0.0002241177848379387	-0.09903601017855711	-0.09903601017854365	0.004278247882066234	2.720309833335675e-05	0.006354241553479217	0.00523438286125323	-0.5258967752895318	-0.002170293595724869	0.01521830611701139	-0.2200407894913367	0.1147223704013728	0.0007127850582517828	0.4443200557174401	-4.640290930136684	-13.59818745057351	-1.109434022791259	-0.4999678365124274	-4.626931040401812	-758.5798936650018	61.40437217024481	3.009967357820721	0.5535407165584557	1.36860010002068	-6.048526741797628	0.06953120120559124	-0.6592633051836946	0.01058340849845633	-2.887715735983099	-2.887715735977259	0.1565098378205095	-0.002989389672734269	0.09658977073877803	0.1206878278959999	-6.940692075050908e-10	5.129489816565994e-09	8.797382098859619e-09	-2.293795253620586e-10	-1.118548032887709e-08	-9.652411562755321e-09	-3.514972682784189e-09
1.04	-0.6146128396897729	-0.1284262846340239	0.6827211872618141	1.684454768629084	-0.2226897893776865	-0.07707666245531151	-0.785389988237249	1.034394799693067	1.034394799692816	-0.02959461300031923	0.1745302260413437	0.0447608849193047	0.05520436860019193	0.1998624880604896	0.02483680343681677	0.0689323580342988	-0.3372559857518476	0.003247267650535199	-0.03003865180802098	-0.0002160311625326216	-0.1279490088609558	-0.1279490088609013	0.005891576618948235	2.982109855487475e-05	0.007314187165510793	0.006414523863285124	-0.5251134053532274	-0.002192360531149296	0.01523613045471255	-0.2202123302918357	0.1147626336953863	0.0007256087084177147	0.4439925299323852	-4.684808830044899	-13.57919770157914	-1.097578529656549	-0.5052403637608451	-4.601267174619614	-758.4673004834142	61.47710693735701	3.036740084244118	0.5575052445739325	1.372025816894847	-6.084580266187499	0.06338464084195515	-0.6620537123098247	-0.02037021856766155	-2.894190491247649	-2.89419049124762	0.1681061709914046	0.006918576433262941	0.09707235889756741	0.113550309255786	-8.750707915381871e-10	6.0572195704857e-09	1.125573942280019e-08	-2.289575665937031e-10	-1.322576709036498e-08	-1.217713223781214e-08	-4.226551074811987e-09
1.05	-0.6124633071238419	-0.1281501008493385	0.6834789676271014	1.680778936991335	-0.2226539755864057	-0.07740992702823754	-0.7853921906795329	1.032970370153783	1.032970370153616	-0.02952731266210292	0.1745305168252762	0.04483864232517855	0.05527432659176605	0.2300532097165397	0.03040422157160101	0.08262336799662984	-0.3979314917876887	0.003914260599283587	-0.03660769144833764	-0.0002408350351833656	-0.1569538007064624	-0.1569538007064694	0.007584017005424598	2.66768297733145e-05	0.008230078477150357	0.007573522806191784	-0.5239820861995934	-0.002194753023769089	0.01525908162604903	-0.2203970508815842	0.11482066134242	0.0007289259851100883	0.4434851864172072	-4.740964907586067	-13.54232548548204	-1.086289196346965	-0.5109153185598021	-4.567943650405846	-758.1466449426168	61.55025869704912	3.011615056709806	0.556997231322213	1.367583563942948	-6.062209371257286	0.06817361434689626	-0.6533463416474402	0.004007868037607529	-2.906158575324461	-2.906158575333981	0.1721449181128438	-0.004180605249707143	0.08776625248365376	0.1165439213187163	-1.054133091982415e-09	6.990197981394177e-09	1.371557477152569e-08	-2.213786735016675e-10	-1.527395402587543e-08	-1.470908317983022e-08	-4.927304283637992e-09
1.06	-0.61001159197123	-0.1278181154566291	0.6843736470876193	1.676495715573459	-0.2226115284671039	-0.07780868544798734	-0.7853951324923624	1.031255385687213	1.031255385687141	-0.02944262153077672	0.1745307262311745	0.04492534239121066	0.05535576841967359	0.2602990053895229	0.03599712504163122	0.096312177080377	-0.4587339417825704	0.004573933246197077	-0.04313742115880308	-0.000363905321798251	-0.1860599943168621	-0.1860599943169308	0.009369735217372747	1.354549236163411e-05	0.009102719196237442	0.008711291129511797	-0.5228507670459774	-0.002197145516372039	0.01528203279718551	-0.2205817714713385	0.1148786889894728	0.0007322432618304203	0.4429778429020168	-4.808972190024107	-13.51156757418712	-1.074926909639374	-0.5179081204534793	-4.559591352460298	-757.9372780712647	61.63241020692357	3.047754887631378	0.5626023116224721	1.371585641177856	-6.109969057995291	0.06192058047508379	-0.6541917263391989	-0.04002350135891572	-2.914470844226369	-2.914470844226354	0.1867617360859363	0.004921162706911486	0.0884222403859727	0.1093041853382564	-1.295193894659665e-09	7.21665677424471e-09	1.644630655496758e-08	5.060527205250721e-11	-1.586706049657198e-08	-1.686082162620563e-08	-5.593058858862562e-09
1.07	-0.6072577171972452	-0.1274300105086706	0.6854051107012167	1.671604424233837	-0.2225625427955033	-0.07827250061631628	-0.785398122266568	1.029248923492504	1.029248923492471	-0.02933954903455136	0.1745307695891223	0.04502062393852332	0.05544847556680883	0.2904276679700749	0.04163470343326663	0.10997103657968	-0.5194870749300325	0.005219880875025396	-0.04961620877567394	-8.271608178760491e-05	-0.2152407111121633	-0.2152407111121986	0.01126486774841525	-4.28136215352426e-06	0.009953764433871741	0.009826141646331301	-0.5224842230944813	-0.002116149384527417	0.01528352295928483	-0.2204182331425933	0.1147688737611692	0.0007859768796432605	0.4433936926926935	-4.889108565857742	-13.54777534463345	-1.049753485452321	-0.5312611142859018	-4.715287307369998	-758.1024213343477	61.71273176740652	2.988178806593824	0.5659581496036347	1.361605916150258	-6.052399033818788	0.06543608197553302	-0.6433157496397093	0.08489019430327077	-2.921111759172777	-2.921111759167888	0.1939088432216784	-0.005046747879819516	0.08347280691617645	0.1119789020190547	-1.539552490008885e-09	7.405534736347475e-09	1.919144772323482e-08	3.366533161419038e-10	-1.638276907020395e-08	-1.899233600366386e-08	-6.256951804640246e-09
